<?xml version="1.0"?><svg fill="#000000" xmlns="http://www.w3.org/2000/svg" viewBox="0 0 30 30" width="90px" height="90px">    <path d="M 12 3 C 11.448 3 11 3.448 11 4 L 9 4 A 1.0001 1.0001 0 1 0 9 6 L 21 6 A 1.0001 1.0001 0 1 0 21 4 L 19 4 C 19 3.448 18.552 3 18 3 L 12 3 z M 6 8 A 1.0001 1.0001 0 1 0 6 10 L 6 21 C 5.448 21 5 21.448 5 22 L 5 27 L 8 27 L 12 27 L 12 23 L 16 23 L 16 20 C 16 18.798 16.541859 17.733 17.380859 17 L 16 17 L 16 15 L 18 15 L 18 16.554688 C 18.59 16.210687 19.268 16 20 16 L 20 15 L 22 15 L 22 16 L 24 16 L 24 10 A 1.0001 1.0001 0 1 0 24 8 L 6 8 z M 8 11 L 10 11 L 10 13 L 8 13 L 8 11 z M 12 11 L 14 11 L 14 13 L 12 13 L 12 11 z M 16 11 L 18 11 L 18 13 L 16 13 L 16 11 z M 20 11 L 22 11 L 22 13 L 20 13 L 20 11 z M 8 15 L 10 15 L 10 17 L 8 17 L 8 15 z M 12 15 L 14 15 L 14 17 L 12 17 L 12 15 z M 20 18 C 18.895 18 18 18.895 18 20 L 18 28 C 18 29.105 18.895 30 20 30 L 28 30 C 29.105 30 30 29.105 30 28 L 30 20 C 30 18.895 29.105 18 28 18 L 20 18 z M 8 19 L 10 19 L 10 21 L 8 21 L 8 19 z M 12 19 L 14 19 L 14 21 L 12 21 L 12 19 z M 24 20 C 24.763 20 25 20.542969 25 20.542969 C 25.682 20.542969 26 21.290969 26 22.167969 C 26 22.604969 25.824219 22.966797 25.824219 22.966797 C 25.895219 23.010797 26.011422 23.151391 25.982422 23.400391 C 25.927422 23.863391 25.741047 23.980234 25.623047 23.990234 C 25.578047 24.422234 24.950781 24.976641 24.800781 25.056641 L 24.800781 25.779297 C 25.100781 26.752297 26.759219 26.276953 27.199219 28.001953 L 20.800781 28.001953 L 20.800781 28 C 21.240781 26.274 22.899219 26.750344 23.199219 25.777344 L 23.199219 25.056641 C 23.049219 24.976641 22.421953 24.422234 22.376953 23.990234 C 22.258953 23.980234 22.072578 23.862438 22.017578 23.398438 C 21.988578 23.149438 22.104781 23.010797 22.175781 22.966797 C 22.175781 22.966797 22 22.565016 22 22.166016 C 22 20.983016 22.586 20 24 20 z M 8 23 L 10 23 L 10 25 L 8 25 L 8 23 z"/></svg>