<?xml version="1.0"?><svg fill="#000000" xmlns="http://www.w3.org/2000/svg" viewBox="0 0 30 30" width="90px" height="90px">    <path d="M 2 2 L 9.4804688 13.220703 C 7.955711 14.677415 7 16.72493 7 19 C 7 23.418 10.582 27 15 27 C 19.418 27 23 23.418 23 19 C 23 16.72493 22.044289 14.677415 20.519531 13.220703 L 28 2 L 25.693359 2 L 18.982422 12.068359 C 18.149636 11.588684 17.223277 11.259056 16.236328 11.105469 L 22.306641 2 L 20 2 L 13.947266 11.076172 C 12.89126 11.215343 11.902107 11.55888 11.017578 12.068359 L 4.3066406 2 L 2 2 z M 7.6933594 2 L 12.847656 9.7304688 L 14 8 L 10 2 L 7.6933594 2 z M 14.318359 15.130859 L 16.111328 15.130859 L 16.111328 22.177734 L 14.318359 22.177734 L 14.318359 16.748047 L 14.226562 16.748047 L 12.527344 17.894531 L 12.527344 16.351562 L 14.318359 15.130859 z"/></svg>