<?xml version="1.0"?><svg fill="#000000" xmlns="http://www.w3.org/2000/svg" viewBox="0 0 30 30" width="30px" height="30px">    <path d="M 23 0 C 19.134 0 16 3.134 16 7 C 16 10.866 19.134 14 23 14 C 26.866 14 30 10.866 30 7 C 30 3.134 26.866 0 23 0 z M 22 3 L 24 3 L 23.835938 9 L 22.164062 9 L 22 3 z M 2.5371094 6 L 13.810547 16.521484 C 14.477547 17.145484 15.523453 17.145484 16.189453 16.521484 L 18.226562 14.619141 C 15.691563 13.027141 14 10.215 14 7 C 14 6.662 14.021594 6.329 14.058594 6 L 2.5371094 6 z M 1 7.3007812 L 1 22.585938 L 8.90625 14.679688 L 1 7.3007812 z M 23 10 C 23.552 10 24 10.448 24 11 C 24 11.552 23.552 12 23 12 C 22.448 12 22 11.552 22 11 C 22 10.448 22.448 10 23 10 z M 29 13.695312 C 27.407 15.124313 25.308 16 23 16 C 22.792 16 22.587812 15.98275 22.382812 15.96875 L 29 22.585938 L 29 13.695312 z M 10.367188 16.044922 L 2.4140625 24 L 27.585938 24 L 19.630859 16.044922 L 17.554688 17.982422 C 16.837688 18.651422 15.917047 18.986328 14.998047 18.986328 C 14.079047 18.986328 13.160359 18.651422 12.443359 17.982422 L 10.367188 16.044922 z"/></svg>